<svg xmlns="http://www.w3.org/2000/svg" viewBox="0 0 1688 630" xml:space="preserve">
  <path fill="#ED913E" d="M444 483.961c-121.461 0-242.423-.045-363.384.098-9.027.01-15.443-2.906-20.33-10.748-6.773-10.867-14.311-21.262-21.681-31.747-2.624-3.733-3.678-7.553-1.526-11.64 2.109-4.002 5.953-4.855 10.22-4.853 68.477.04 136.959-.306 205.43.378 11.163.111 22.413 4.261 33.393 7.36 23.906 6.746 46.894 6.214 69.023-6.307 7.791-4.408 15.826-8.633 25.171-8.796 2.327-.04 4.93-.542 6.94.29 8.192 3.395 15.978 1.629 24.33.265 6.636-1.083 13.907 1.49 20.863 2.646 7.646 1.272 15.24 3.921 22.877 3.996 41.316.402 82.639.175 123.959.21 7.606.006 11.797 4.206 10.857 10.92-.24 1.717-1.145 3.466-2.138 4.933-8.21 12.13-16.462 24.23-24.812 36.263-3.397 4.895-8.308 6.78-14.225 6.769-34.822-.066-69.645-.035-104.967-.037"/>
  <path fill="#E5BA43" d="M411 502.878c38.997 0 77.495.005 115.992-.012 3.718-.002 7.5-.271 9.433 3.919 2.044 4.43.63 8.545-2.513 11.429-11.514 10.56-23.019 21.18-35.192 30.949-7.196 5.775-16.64 5.286-25.466 5.31-20.81.058-41.62-.144-62.429-.17-28.142-.037-56.285-.007-84.428-.006q-61.211 0-122.423-.003c-16.646 0-33.308-.457-49.933.139-14.135.506-26.19-3.382-36.452-13.119-7.724-7.33-15.757-14.339-23.349-21.799-1.99-1.955-3.611-4.931-4.072-7.662-.941-5.584 2.189-8.894 7.853-8.948 11.165-.107 22.332-.038 33.498-.037 92.993.002 185.987.006 279.481.01"/>
  <path fill="#69A897" d="M218.857 602.219c-8.66-3.361-17.41-6.515-25.942-10.176-3.889-1.668-5.626-5.345-4.47-9.542 1.112-4.033 4.208-5.48 8.419-5.477 77.788.065 155.576.06 233.364.023 4.219-.002 7.119 1.504 8.095 5.772.967 4.227-.255 7.839-4.295 9.565-8.24 3.521-16.65 6.646-25.604 9.647-2.536.498-4.458 1.284-6.38 2.069 0 0-.033-.071-.347-.076-1.116.34-1.92.684-2.722 1.028 0 0-.347.078-.965.025-1.937.055-3.287.014-4.568.292-10.829 2.349-21.557 5.342-32.488 6.996-13.877 2.1-27.897 4.06-41.891 4.346-13.341.273-26.725-1.72-40.095-2.653-18.48-1.291-36.2-5.97-53.71-11.73-1.936-.637-4.258-.101-6.4-.11"/>
  <path fill="#559F8C" d="M219.072 602.397c1.928-.17 4.25-.706 6.187-.069 17.508 5.76 35.228 10.439 53.71 11.73 13.369.934 26.753 2.926 40.094 2.653 13.994-.285 28.014-2.246 41.891-4.346 10.931-1.654 21.659-4.647 32.488-6.996 1.281-.278 2.631-.237 4.392-.319-11.78 3.234-23.888 7.009-36.251 9.528-23.141 4.715-46.7 4.446-70.108 3.32-23.5-1.13-46.368-6.508-69.234-14.194-.754-.483-1.027-.62-1.348-.662a13 13 0 0 1-1.82-.645"/>

  <path fill="currentcolor" d="M474.184 252.554c-.246.408-.493.817-1.18 1.07-1.484.443-2.689.868-3.542 1.668-4.77 4.471-9.366 9.132-14.2 13.53-3.589 3.265-7.451 6.228-11.191 9.326 0 0-.045-.104-.382-.1-5.03 2.01-9.657 4.196-14.432 5.985-16.568 6.208-33.772 8.052-51.322 6.832-2.294-.16-5.375-1.017-6.584-2.66-4.781-6.496-8.962-13.435-13.36-20.516.008-.921.01-1.535.345-2.237.775-.203 1.218-.317 1.865-.2 3.402-3.266 6.602-6.761 10.05-10.48.255-.863.26-1.502.302-2.141.036 0 .036-.071.299-.084.309-.319.356-.625.446-1.017.044-.085.183-.217.528-.123 3.492-2.052 6.554-4.247 5.413-8.939.048-.105.227-.253.565-.132 1.127-.428 2.204-.8 2.661-1.55 9.498-15.596 15.542-32.623 18.261-50.505 1.719-11.302.976-22.982 1.263-34.495.29-11.632-3.004-22.646-6.954-33.31-2.092-5.645-2.748-13.032-10.47-15.158-.382-.105-.413-1.485-.562-2.616.088-.808.131-1.27.359-1.901.001-.712-.182-1.255-.408-2.15-.848-1.78-1.52-3.302-2.477-4.618-13.295-18.295-30.563-31.666-51.034-41.081.524-1.322 1.06-2.673 1.906-4.15 1.867-1.085 3.467-1.977 4.973-3.007 16.732-11.441 35.15-17.645 55.485-17.797 13.279-.1 26.51.437 39.053 5.469 7.073 2.837 14.669 5.032 20.887 9.215 17.44 11.735 31.248 26.556 39.79 46.482 6.866 16.016 10.642 32.475 11.236 49.515.518 14.872-.61 29.856-1.847 44.72-1.592 19.124-8.119 36.785-17.991 53.211a525 525 0 0 1-7.2 11.637c-.355.931-.453 1.62-.55 2.307"/>
  <path fill="currentcolor" d="M199.677 339.907c-.285.01-.57.019-1.526-.24-1.313-.305-2.081-.59-2.581-.34-15.3 7.647-31.341 9.872-48.324 7.833-10.81-1.298-20.762-4.329-29.35-10.894-4.687-3.585-8.631-8.141-12.95-12.612-3.458-7.66-7.18-14.844-10.225-22.305-4.22-10.342-6.143-21.187-7.107-32.38-.984-11.425-.641-22.387 3.699-33.12.669-1.655.5-3.932-.002-5.717-.938-3.328-2.519-6.468-3.63-9.755-2.035-6.025-2.686-12.274 1.108-17.685 5.152-7.347 14.723-12.57 21.394-1.431 4.747 7.926 6.672 16.564 6.731 25.624.022 3.37-.893 6.77-1.596 10.11-.34 1.616-1.178 3.128-1.79 4.686 1.686.437 3.353 1.08 5.065 1.243 1.266.12 2.614-.302 3.889-.626 8.824-2.241 17.693-4.33 26.44-6.845 7.76-2.23 15.38-4.946 23.47-7.457 2.329-.371 4.554-.24 6.112-1.195 3.679-2.254 9.65-1.71 9.874-8.522.088-2.656 8.092-3.457 10.345-1 .024 2.721.324 5.163.893 7.658.357.379.444.703.263 1.215-.036 1.039.195 1.89.64 2.779.492.203.62.448.707 1.05 3.329 1.466-.114 3.62.79 5.364-.026.226-.163.66-.302.757-.044.362.05.627.216 1.107.072.215.12.667-.006.975.392 1.047.91 1.785 1.312 2.65-.114.126.083-.153.055.239 1.884.904 3.796 1.416 5.883 2.168.73.418 1.286.596 1.565 1.047-4.952.36-7.682 2.096-6.762 7.4.673 3.88-2.862 3.694-4.897 3.921-1.299.146-3.486-1.406-4.103-2.74-1.218-2.63-1.247-5.811-2.462-8.444-1.328-2.874-3.447-5.36-6.9-1.342-14.101 7.901-28.762 13.51-44.03 17.593-3.007.804-3.027 2.832-2.122 5.013 1.33 3.207 3.199 6.2 4.408 9.445 2.716 7.293 5.208 14.672 7.709 22.045 1.05 3.094 2.023 5.435 6.303 4.074 8.68-2.761 17.587-4.812 26.275-7.552 14.369-4.53 28.662-9.258 44.011-8.827 0 0-.09.022.031.308 1.733 2.096 3.345 3.904 4.957 5.713 0 0-.063.065-.098.46.625 9.623 1.119 18.869 2.09 28.065.183 1.724 1.946 4.062 3.548 4.706 4.265 1.715 8.84 2.662 13.506 4.183 7.867 3.734 15.628 6.98 23.147 10.714 11.334 5.63 22.526 11.55 33.723 17.453 4.428 2.334 8.705 4.955 13.051 7.445 0 0-.082.045-.057.356 2.71 3.084 5.396 5.856 8.081 8.63 0 0-.09.037-.068.356 1.697 2.434 3.372 4.548 5.048 6.663 0 0-.087.038-.086.396 3.07 8.331 3.634 16.522 2.12 24.892 0 0-.035-.113-.274.025-.408.741-.578 1.343-.747 1.946 0 0-.054-.115-.362-.09-1.426 1.378-2.544 2.73-3.661 4.081 0 0-.056-.102-.296-.119-.435-.028-.632-.038-1.144.114-9.576 4.302-18.851 7.269-29.433 6.07-13.575-1.537-25.381-6.83-36.748-13.881-7.23-4.486-14.358-8.288-23.813-7.77-7.276.399-14.794-2.771-22.11-4.708-1.398-.37-3.02-2.23-3.385-3.689-.791-3.177-1.274-6.56-1.11-9.822.547-10.93-3.877-19.968-10.107-28.737-.001-.745-.01-1.171-.137-1.906-.687-1.452-1.256-2.595-1.834-4.077-.625-1.09-1.24-1.84-1.972-2.635a5 5 0 0 0-.352-.109m48.786 35.613-10.388-11.138v13.122c3.863-.467 7.327-.885 10.388-1.984"/>
  <path fill="currentcolor" d="M1615.99 283c-.961-1.115-1.922-2.23-2.726-3.852-1.804-4.03-3.47-7.761-5.776-11.044-10.46-14.895-21.155-29.625-31.657-44.491-6.97-9.868-13.66-19.937-20.736-29.727-1.055-1.46-3.54-1.888-5.364-2.794-.572 1.713-1.636 3.424-1.643 5.14-.105 26.809-.073 53.619-.073 80.429v5.453c-3.807.328-6.866.515-9.904.873-3.42.403-5.084-1.17-5.092-4.453-.036-14.82-.099-29.64.04-44.46.074-7.868.82-15.735.77-23.6-.111-17.278-.558-34.554-.775-51.833-.012-1.022.523-2.4 1.284-3.019 2.577-2.095 12.472-.232 14.416 2.531 6.196 8.808 12.254 17.719 18.659 26.372 2.638 3.566 6.025 6.578 9.07 9.842 0 0 .082.106-.023.508.784 2.314 1.427 4.394 2.601 6.11 7.761 11.339 15.55 22.662 23.517 33.856 3.241 4.554 6.954 8.772 10.825 13.193a35 35 0 0 0 2.606-.041c-.016-.01.012-.03.095.131.348.063.614-.036.872-.603-.004-31.241 0-62.014.284-93.032 1.77-.344 3.26-.443 4.979-.27 1.735.091 3.243-.09 5.152-.287 1.474-.004 2.546.006 3.782.262.706.437 1.249.628 1.792.819.173.417.347.834.088 1.857-.637 7.988-1.005 15.37-1.018 22.752-.061 33.233-.044 66.465.02 99.698.005 2.834-1.081 3.828-3.832 3.73-4.073-.144-8.155-.045-12.233-.05m-876.083-.995c-.164.595-.134 1.413-.522 1.75-2.7 2.344-15.567 1.614-18.027-1.67.423-18.842.534-36.979.6-55.427-.673-.763-1.3-1.212-2.397-1.663-18.327-.002-36.184-.038-54.04.051-1.833.01-3.662.77-5.493 1.182 0 0 .07-.156-.272-.078-.814 1.693-1.683 3.304-1.696 4.922-.108 13.978-.062 27.956-.063 41.935 0 8.31 0 8.31-7.856 9.78-5.786 1.083-7.129-.018-7.132-5.964-.011-23.464-.006-46.927-.006-70.391 0-15.642.088-31.286-.064-46.927-.034-3.476 1.031-4.814 4.552-4.56 3.477.249 6.985.063 10.487.535.013 17.487.02 34.508.201 51.86 1.721 1.106 3.261 2.54 4.813 2.554 18.238.157 36.477.168 54.714-.026 1.445-.015 2.87-1.843 4.305-3.302-.043-17.734-.088-34.996-.132-52.258 4.173-2.625 15.205-2.088 17.785 1.59-.446 1.52-.684 2.333-.685 3.146-.018 39.75-.024 79.499.024 119.248.001 1.238.59 2.475.904 3.713"/>
  <path fill="currentcolor" d="M1098.956 255.987s.083.428.08 1.046c2.65 7.404 5.305 14.19 7.96 21.388.204 3.364-1.159 4.724-4.127 4.595-1.824-.08-3.677-.196-5.478.027-4.191.517-6.349-1.378-7.653-5.265-2.365-7.05-5.28-13.918-7.58-20.987-1.175-3.612-3.04-4.906-6.84-4.861-15.449.184-30.901.074-46.353.078-6.829.002-6.976.141-7.915 7.138 0 0-.035.426-.441.709-1.143 2.236-1.88 4.19-2.889 6.39-.701 2.484-1.129 4.722-1.556 6.96 0 0-.022-.111-.264.032-.445.733-.65 1.323-.853 1.913 0 0-.016.436-.416.717-2.265 5.776-5.69 8.496-11.716 6.72-.411-.122-.95.27-1.44.324-4.724.518-5.834-.717-4.245-5.168a2679 2679 0 0 1 12.408-34.044c5.718-15.36 11.611-30.654 17.29-46.029 4.761-12.89 9.206-25.9 14.115-38.734.645-1.688 3.211-3.731 4.885-3.729 4.936.007 9.874.929 14.795 1.618.295.042.415 1.193.652 1.814 5.204 13.618 10.513 27.197 15.592 40.861 4.785 12.878 9.25 25.876 14.042 38.752 1.002 2.693 2.82 5.083 4.26 7.613 0 0-.12.026-.155.38 1.257 3.482 2.55 6.612 3.842 9.742m-47.026-72.973c-.262.007-.535-.029-.78.04-.11.031-.174.266-.233.418-6.597 16.928-13.19 33.856-19.696 51.684.829.608 1.653 1.736 2.487 1.744 12.044.114 24.089.078 36.133.078-1.882-.937-3.772-.865-5.655-.951-4.733-.218-9.462-.507-13.294-1.052 5.558-.019 11.12.076 16.671-.143 1.266-.05 2.489-1.18 4.342-1.975.214-.55.75-1.22.596-1.635-5.406-14.623-10.817-29.245-16.425-43.791-.627-1.624-2.426-2.796-4.146-4.417"/>
  <path fill="currentcolor" d="M852.735 265.004s.257.356.372.824c.367.706.62.942 1.342 1.183 17.495.02 34.52.039 51.605.465.355 3.53.568 6.662.962 9.77.472 3.732-1.027 4.869-4.766 4.835-18.49-.167-36.983-.086-55.475-.058-1.818.003-3.757-.118-5.43.443-4.56 1.527-5.425-.411-5.406-4.556.12-26.821.062-53.643.063-80.465 0-12.66.024-25.322-.02-37.983-.008-2.537.026-4.531 3.555-4.515 21.324.101 42.648.076 63.972.02 2.585-.008 3.59.977 3.511 3.538-.117 3.828-.033 7.663-.502 11.484-17.826-.006-35.186-.002-52.767.142a4.8 4.8 0 0 0-.693 1.064s-.068.435-.56.748c-.811.855-1.403 1.396-1.407 1.94-.068 10.432-.12 20.866.009 31.297.012.934 1.295 1.852 1.988 2.778 0 0-.085.031.018.39 1.753.79 3.4 1.576 5.055 1.592 11.496.108 22.994.007 34.49.071 9.388.052 8.258-1.213 8.325 8.15.046 6.4-.36 6.797-6.766 6.81-12.33.026-24.664.174-36.989-.077-4.55-.092-6.334 1.48-6.266 5.994.148 9.995-.021 19.995.122 29.99.02 1.383 1.08 2.751 1.658 4.126"/>
  <path fill="currentcolor" d="M1570.104 443c.004-11.496.105-22.493-.031-33.487-.056-4.44 1.566-6.226 6.19-6.123 10.99.243 21.994.261 32.984.005 17.618-.411 28.075 13.398 27.31 30.326-.375 8.313-2.915 15.679-10.462 20.443 17.32 12.566 19.308 35.612 4.42 48.996-5.14 4.623-11.28 7.004-18.145 7.09-11.993.152-23.995-.15-35.982.163-4.977.13-6.357-1.859-6.329-6.437.123-20.158.049-40.317.045-60.976m49.762 23.138s-.04.11-.01-.659c-1.66-1.115-3.256-3.067-4.993-3.203-8.714-.68-17.464-.948-26.206-1.153-.798-.019-1.632 1.433-2.489 2.061 0 0 .144.024-.696.064-.484.76-1.38 1.515-1.389 2.28-.101 8.982-.119 17.965.006 26.946.012.848 1.143 1.68 2.042 2.803 0 0-.028.403.42 1.116 8.05-.046 16.235.825 24.116-.347 12.79-1.902 17.11-8.07 16.291-20.814-.227-3.54-1.387-6.726-5.412-7.73 0 0-.15.062-.08-.606-.57-.235-1.138-.47-1.6-.758m-33.834-18.135s0-.07.16.73c.492.389.981 1.111 1.477 1.116 7.646.07 15.341.594 22.926-.088 10.18-.915 14.592-8.169 12.632-19.419-.468-2.687-.441-5.893-4.264-6.307 0 0-.038.086.007-.682-2.109-1.755-4.059-4.749-6.354-5.043-8.424-1.077-16.962-1.257-25.458-1.776l-.046 1.46c2.08 0 4.164-.09 6.237.018 4.551.24 9.097.58 12.719 1.03-6.682-.012-13.364-.024-20.83.175-.382.494-1.092.985-1.098 1.483-.092 8.318-.151 16.637-.03 24.953.011.778 1.287 1.538 1.922 2.35"/>
  <path fill="currentcolor" d="M1385.91 171.153s-.057.03-.434.058c-.74.286-1.103.545-1.464 1.272-.001 11.816-.004 23.164.048 34.904 1.875 1.131 3.686 2.48 5.518 2.51 11.824.195 23.652.1 35.478.1 9.107 0 8.97.001 8.99 8.904.009 4.359-1.332 6.27-6.08 6.168-12.82-.274-25.652.021-38.475-.162-4.058-.059-5.662 1.207-5.573 5.427.22 10.49-.018 20.988.162 31.479.03 1.74 1.247 3.46 2.384 5.192 17.494.05 34.518.094 51.703.466.053 3.6-.308 6.89-.096 10.143.238 3.657-1.333 4.47-4.681 4.45-19.825-.119-39.651-.17-59.474.034-4.1.043-5.004-1.364-4.993-5.177.117-38.983.128-77.968-.012-116.951-.015-4.006 1.212-5.083 5.116-5.053 21.657.168 43.315.083 64.982.552.012 3.447-.24 6.455.078 9.402.465 4.312-1.415 5.249-5.392 5.191-14.237-.206-28.48-.12-42.72-.03-1.691.011-3.377.73-5.066 1.121"/>
  <path fill="currentcolor" d="M1169.008 164.503c-.264-.542-.527-1.084-.614-2.192.392-.767.533-1.01.838-1.502-.55-2.08-1.335-3.952-2.12-5.824.424-.596.85-1.193 1.697-1.6.632.4.88.545 1.468.905 4.115.092 7.929-.096 12.03-.296.48-.029.671-.045.863-.062 0 0 .43.046.637.524 2.216 6.058 4.22 11.641 6.237 17.22 7.028 19.443 13.97 38.917 21.129 58.312 3.717 10.07 7.823 19.996 12.084 30.142 3.117 1.638 4.066.116 4.954-2.322 5.663-15.566 11.619-31.027 17.118-46.65 2.717-7.718 4.663-15.708 6.958-23.574 0 0-.14-.402.268-.328 1.122-.672 2.159-1.295 2.498-2.184 2.706-7.1 5.314-14.237 7.886-21.386 3.651-10.149.966-8.542 12.249-8.673 6.238-.073 7.108 1.143 4.937 6.964-4.5 12.065-9.285 24.028-13.564 36.17-1.895 5.375-2.847 11.084-4.227 16.642 0 0 .011.133-.339.174-.557.044-.764.047-1.135.133-.229.187-.37.343-.342.385.129.192.306.352.676.532.21.008.63.004.63.004-.052.498-.104.995-.652 1.703-.75.224-1 .26-1.502.552-.732 2.063-1.208 3.891-1.946 5.958-.432 1.405-.603 2.572-.982 3.889-.11.727-.01 1.304.088 1.88.146.292.141.58-.478 1.053-.761.438-1.06.688-1.355.943.003.005-.007 0-.244.174-.41.724-.583 1.274-1.018 2.066-5.37 14.424-10.464 28.61-15.597 42.782-1.55 4.278-3.691 7.56-9.142 5.234-1.004-.428-2.34-.403-3.451-.198-7.95 1.47-13.322-1.082-15.144-9.418-.105-.482-.32-.94-.49-1.407-7.208-19.902-14.377-39.819-21.652-59.697-1.918-5.24-4.165-10.362-6.262-15.914-.99-2.467-1.978-4.557-2.986-7.003-.562-.787-1.105-1.218-1.648-1.65 0 0-.263-.256-.029-.77-.185-1.102-.604-1.691-1.024-2.28 0 0-.147-.193.046-.645-.319-2.066-.831-3.68-1.497-5.511a4.3 4.3 0 0 0-1.122-.576s.114-.129.164-.347c.068-.423.085-.628.095-1.19-.532-.887-1.059-1.419-1.585-1.95 0 0-.107-.161.075-.626-.255-2.438-.606-4.438-1.197-6.364-.133-.435-1.104-.612-1.69-.907-.142-.22-.283-.44-.54-1.022-.117-.362-.051-.273-.051-.273"/>
  <path fill="currentcolor" d="M985.992 462.96a6095 6095 0 0 0-.187 31.869c1.178 1.232 2.3 2.083 3.432 2.097 8.98.11 17.962.06 26.944.061 10.915.002 10.915.003 10.498 11.388-17.607.384-34.898.517-52.188.602-3.748.018-3.507-2.763-3.507-5.309 0-31.122.06-62.245-.071-93.367-.018-4.249 1.59-5.425 5.605-5.381 15.144.165 30.295.282 45.433-.056 5.057-.113 5.213 2.316 5.129 6.059-.08 3.522.287 6.395-4.976 6.208-10.97-.39-21.965-.17-32.948-.034-1.062.013-2.11 1.193-3.164 1.83-.122 9.396-.245 18.79-.086 29.016 1.941 1.24 3.598 1.981 5.264 2.004 8.634.12 17.281.317 25.901-.046 4.627-.195 4.987 1.94 5.03 5.644.046 3.845-.635 5.71-5.116 5.548-9.287-.337-18.596-.165-27.893-.017-1.043.017-2.067 1.227-3.1 1.884"/>
  <path fill="currentcolor" d="M1247.231 407.918s.408.01.66.45c1.248.809 2.243 1.178 3.24 1.548 0 0-.08.03.042.235.439.363.757.521 1.074.68 0 0-.122.021-.031.297 1.544 1.862 2.888 3.57 4.474 5.01 2.774 2.519 2.997 4.761.202 7.546-4.322 4.307-4.692 4.456-11.092-.486-13.357-10.317-37.15-10.727-48.906 7.184-.256 1.208-.352 2.102-.447 2.997 0 0-.365-.31-.526-.127-1.502 2.201-3.305 4.053-4.11 6.267-4.195 11.544-4.98 23.269-.453 34.91 5.074 13.043 16.534 23.998 32.22 23.656 9.708-.212 18.236-2.745 25.338-9.52 3.857-3.68 6.519-.187 8.872 1.958 2.373 2.164 1.487 4.811-.735 6.954-5.964 5.749-12.796 9.91-21.418 11.606-8.153.337-15.896.638-23.64.93-.001-.011-.017-.018-.124-.233-.31-.485-.576-.654-1.3-.741-2.451-.4-4.51-.779-6.738-1.448-1.333-1.192-2.561-2.025-3.654-3.008-4.866-4.379-10.65-8.123-14.349-13.34-9.523-13.432-11.427-28.87-9.053-44.902.818-5.52 2.087-10.972 3.15-16.455 0 0 .045.082.36.049 1.23-.906 2.376-1.635 3.024-2.674 9.287-14.906 22.432-23.26 40.217-23.171 6.569.032 13.133 1.127 19.699 1.737 0 0-.132.021.037.274 1.068.44 1.967.626 2.867.812 0 0-.082.015.04.228.436.4.748.589 1.06.777"/>
  <path fill="currentcolor" d="M199 216.997c-2.53-2.175-10.534-1.374-10.622 1.282-.224 6.812-6.195 6.268-9.874 8.522-1.558.956-3.783.824-6.37 1.183-1.115-.217-1.564-.43-2.014-.645l14.895-5.223c.886-6.919 2.177-7.993 9.286-8.728 1.515-.157 3.363-1.058 4.305-2.224 31.648-39.209 63.204-78.492 94.774-117.764 10.098-12.561 20.17-25.145 30.325-37.66 1.667-2.055 3.71-3.805 5.923-5.538.366.348.388.538.41.727l-1.595 4.023c20.471 9.415 37.74 22.786 51.034 41.081.956 1.316 1.629 2.839 2.488 4.947.107 1.118.16 1.554.212 1.99a6 6 0 0 1-.381 1.73c-.253.344-.669.336-.52-.033-.116-1.306-.19-2.36-.677-3.164-11.779-19.388-29.225-32.385-48.782-42.925-.895-.483-3.008-.04-3.737.738-3.008 3.205-5.736 6.677-8.502 10.104-24.433 30.28-48.827 60.591-73.286 90.85-15.667 19.382-31.425 38.691-47.188 57.707a29 29 0 0 1-.105-.98m1377.344-22.933c-2.905-2.961-6.292-5.973-8.93-9.539-6.405-8.653-12.463-17.564-18.659-26.372-1.944-2.763-11.84-4.626-14.416-2.53-.761.619-1.296 1.996-1.284 3.018.217 17.279.664 34.555.775 51.833.05 7.865-.696 15.732-.77 23.6-.139 14.82-.076 29.64-.04 44.46.008 3.282 1.671 4.856 5.092 4.453 3.038-.358 6.097-.545 9.903-.873v-5.453c0-26.81-.03-53.62.074-80.43.007-1.715 1.07-3.426 1.643-5.139 1.824.906 4.309 1.333 5.364 2.794 7.076 9.79 13.765 19.859 20.736 29.727 10.502 14.866 21.197 29.596 31.657 44.49 2.305 3.284 3.972 7.015 5.688 10.736-14.942-20.521-29.637-41.238-44.332-61.956-5.826-8.214-11.649-16.43-18.227-25.709v5.211l.017 80.924c0 7.368-.349 7.676-7.502 7.729-12.335.09-11.625.843-11.616-11.608.027-37.964.005-75.929.008-113.893 0-6.544.235-6.23 6.715-6.899 6.639-.684 10.64 1.671 14.249 7.227 7.507 11.557 15.765 22.627 23.855 34.2"/>
  <path fill="currentcolor" d="M1439 155.002c-21.658-.002-43.316.083-64.973-.085-3.904-.03-5.13 1.047-5.116 5.053.14 38.983.13 77.968.012 116.951-.011 3.813.892 5.22 4.993 5.177 19.823-.205 39.65-.153 59.474-.033 3.348.02 4.92-.794 4.68-4.45-.211-3.254.15-6.545.504-10.223.52-.432.796-.46 1.07-.486.353 5.28.895 10.563.846 15.84-.007.768-2.842 2.153-4.376 2.164-21.49.149-42.982.064-64.473.147-4.995.02-5.569-2.983-5.561-6.908.049-24.99.028-49.98.026-74.97 0-14.66.085-29.322-.067-43.981-.049-4.663 1.63-6.503 6.449-6.464q31.487.254 62.972-.028c4.454-.04 6.06 1.644 5.783 5.866-.229 3.476-.244 6.966-.76 10.23-.764-4.746-1.124-9.273-1.483-13.8"/>
  <path fill="currentcolor" d="M185.969 243.053c3.099-3.987 5.218-1.502 6.546 1.372 1.215 2.633 1.244 5.813 2.462 8.444.617 1.334 2.804 2.886 4.103 2.74 2.035-.227 5.57-.04 4.897-3.92-.92-5.305 1.81-7.042 6.973-7.513.75-.584.937-.838 1.486-1.185a8735 8735 0 0 1 60.41 9.01q25.303 3.864 50.583 7.871c11.534 1.829 23.05 3.774 34.575 5.668-.002.614-.005 1.228-.382 2.148-1.113.3-1.852.293-2.777.052-.75-.405-1.314-.574-2.328-.745-7.604-.758-14.754-1.556-21.915-2.219-.83-.077-1.73.59-2.597.911l-122.45-19c-.097 1.13-.268 1.767-.184 2.367.941 6.673-2.265 9.974-8.926 8.428-1.69-.392-3.425-2.866-4.115-4.757-1.06-2.904-1.231-6.132-1.892-9.853-1.338.409-2.486.76-4.03.919-.41-.374-.425-.556-.439-.738"/>
  <path fill="currentcolor" d="M330.35 50.801c-.334-.061-.356-.251-.407-.726 12.085-10.692 26.299-17.225 41.741-20.03 24.334-4.42 48.435-2.887 71.053 8.209 29.044 14.249 47.106 37.828 55.605 68.656 9.882 35.847 8.391 71.628-2.726 106.993-4.262 13.558-11.048 25.908-20.231 36.923-.353-.378-.372-.6-.392-.823 2.315-3.797 4.65-7.581 6.942-11.393 9.872-16.426 16.4-34.087 17.991-53.21 1.238-14.865 2.365-29.85 1.847-44.721-.594-17.04-4.37-33.499-11.236-49.515-8.542-19.926-22.35-34.747-39.79-46.482-6.218-4.183-13.814-6.378-20.887-9.215-12.543-5.032-25.774-5.568-39.053-5.47-20.335.153-38.753 6.357-55.485 17.798-1.506 1.03-3.106 1.922-4.973 3.006"/>
  <path fill="currentcolor" d="M906.985 170c.002-3.832-.082-7.667.035-11.495.079-2.56-.926-3.546-3.511-3.539-21.324.057-42.648.082-63.972-.019-3.529-.016-3.563 1.978-3.554 4.515.043 12.661.02 25.322.019 37.983 0 26.822.057 53.644-.063 80.465-.019 4.145.845 6.083 5.406 4.556 1.673-.561 3.612-.44 5.43-.443 18.492-.028 36.985-.11 55.475.058 3.739.034 5.238-1.103 4.766-4.834-.394-3.11-.607-6.24-.957-10.015-.057-.653-.051-1.14-.051-1.14 1.047 1.42 2.998 2.838 3.004 4.263.057 15.48 2.109 14.718-13.1 14.638-18.494-.097-36.988-.016-55.482-.027-5.736-.003-6.74-.949-6.742-6.624q-.022-59.481.013-118.962c.004-5.905.672-6.55 6.67-6.555 20.993-.02 41.986.091 62.978-.074 4.338-.034 6.28 1.4 5.793 5.753-.453 4.05-.917 8.098-1.77 12.031-.392-.115-.387-.536-.387-.536"/>
  <path fill="currentcolor" d="M169.726 227.32c.844.233 1.293.447 2 .673-7.424 2.514-15.044 5.23-22.804 7.46-8.747 2.514-17.616 4.604-26.44 6.845-1.275.324-2.623.746-3.89.626-1.711-.162-3.378-.806-5.064-1.243.612-1.558 1.45-3.07 1.79-4.686.703-3.34 1.618-6.74 1.596-10.11-.06-9.06-1.984-17.698-6.73-25.624-6.672-11.139-16.243-5.916-21.395 1.431-3.794 5.411-3.143 11.66-1.107 17.685 1.11 3.287 2.691 6.427 3.629 9.755.503 1.785.67 4.062.002 5.717-4.34 10.733-4.683 21.695-3.7 33.12.965 11.193 2.887 22.038 7.108 32.38 3.045 7.461 6.767 14.645 9.907 22.303-.704.342-1.13.334-1.554.325-7.624-11.344-11.997-24.012-14.919-37.222-3.074-13.9-5.394-28.135-1.416-41.979 2.517-8.76 2.147-16.062-1.074-24.535-4.763-12.532.946-23.261 12.323-26.734 4.42-1.35 7.67-.344 10.939 3.225 5.908 6.45 6.896 14.608 9.212 22.399 2.316 7.793 1.838 15.1-2.92 22.024l.79 1.209c17.775-5.022 35.549-10.043 53.717-15.045"/>
  <path fill="currentcolor" d="M1486.87 488.787c4.207-6.508 5.427-13.668 5.343-21.34-.208-18.963-.08-37.93-.085-56.895-.002-6.881.226-7.115 6.933-7.144 1.663-.008 3.327 0 4.99-.004 3.067-.01 4.717 1.586 4.684 4.582-.273 24.267.215 48.583-1.247 72.78-.796 13.165-8.143 23.66-21.983 28.356-.448-.079-.585-.231-.374-.49 1.275-1.045 2.265-1.965 3.413-2.593 12.984-7.101 17.567-18.615 17.51-32.73-.084-20.805-.131-41.61.066-62.413.044-4.584-1.412-5.984-6.003-6.109-4.948-.134-5.233 2.176-5.207 6.03.131 19.805.348 39.618-.095 59.413-.156 6.985-1.546 14.16-7.827 18.903-.071-.102-.118-.346-.118-.346"/>
  <path fill="currentcolor" d="M986.256 418.945c.79-.655 1.838-1.835 2.9-1.848 10.983-.136 21.978-.356 32.948.034 5.263.187 4.897-2.686 4.976-6.208.084-3.743-.072-6.172-5.13-6.059-15.137.338-30.288.22-45.432.056-4.015-.044-5.623 1.132-5.605 5.38.131 31.123.07 62.246.07 93.368 0 2.546-.24 5.327 3.508 5.309 17.29-.085 34.58-.218 52.416-.634a3.2 3.2 0 0 1 1.002-.364c-1.347.784-2.689 2.237-4.044 2.25-16.662.155-33.326.062-49.99.13-3.327.015-4.849-1.199-4.842-4.677.056-32.493.05-64.987.003-97.481-.005-3.381 1.403-4.813 4.785-4.803 16.997.048 33.994.027 50.99-.026 3.218-.01 4.787 1.513 4.245 4.595-.646 3.672 2.133 8.093-3.01 10.669a821 821 0 0 0-30.82-.596c-2.734-.003-5.469.491-8.203.757-.168.055-.336.11-.767.148"/>
  <path fill="currentcolor" d="M203.964 348.953c6.238 8.45 10.662 17.488 10.115 28.418-.164 3.261.319 6.645 1.11 9.822.364 1.46 1.987 3.318 3.385 3.689 7.316 1.937 14.834 5.107 22.11 4.708 9.455-.518 16.583 3.284 23.813 7.77 11.367 7.052 23.173 12.344 36.748 13.881 10.582 1.199 19.857-1.768 29.473-5.666.394.51.432.779.47 1.047-10.845 7.398-23.086 7.74-35.301 5.978-13.835-1.997-26.237-8.235-37.319-16.524-6.292-4.707-13.373-2.613-19.946-4.307-6.548-1.688-13.244-2.793-19.856-4.244-4.441-.974-6.084-4.2-6.337-8.392-.21-3.48-.57-6.964-.539-10.444.086-9.438-4.75-17.056-8.683-25.317.42-.397.589-.408.757-.42"/>
  <path fill="currentcolor" d="M185.615 243.083c.368.152.383.334.414.79-11.93 8.324-25.25 13.213-38.966 17.183-2.043.592-4.092 1.161-6.213 1.762l14.48 36.989c8.885-2.592 18.432-5.627 28.116-8.138 11.51-2.985 23.095-5.72 34.74-8.114 3.06-.629 6.462.403 9.845.995-15.21-.107-29.504 4.62-43.873 9.151-8.688 2.74-17.594 4.79-26.275 7.552-4.28 1.36-5.254-.98-6.303-4.074-2.501-7.373-4.993-14.752-7.71-22.045-1.208-3.245-3.078-6.238-4.407-9.445-.905-2.181-.885-4.209 2.123-5.013 15.267-4.082 29.928-9.692 44.029-17.593"/>
  <path fill="currentcolor" d="M769.07 406.008c1.974-2.27 9.643-3.582 13.135-2.25 3.648 1.392 2.692 4.576 2.698 7.257.069 31.107.006 62.214.185 93.32.026 4.602-1.561 6.593-6.078 6-3.33-.437-6.635-1.057-9.666-1.902.487-.293.689-.28 1.24-.111 1.32.345 2.285.664 3.26.707 8.725.384 9.193-.088 9.193-8.93v-86.998c0-7.79-1.677-9.23-9.487-8.064-1.14.17-2.245.584-3.646.892-.465.032-.65.055-.834.08"/>
  <path fill="currentcolor" d="M1236.044 509.048c8.213-1.661 15.045-5.822 21.009-11.571 2.222-2.143 3.108-4.79.735-6.954-2.353-2.145-5.015-5.637-8.872-1.958-7.102 6.775-15.63 9.308-25.339 9.52-15.685.342-27.145-10.613-32.22-23.657-4.527-11.64-3.74-23.365.455-34.91.804-2.213 2.607-4.065 4.303-6.125-7.314 15.108-8.444 30.397-.4 45.772 9.28 17.734 32.226 22.883 48.408 10.944.936-.69 1.834-1.434 2.742-2.162 4.8-3.85 12.11-2.069 14.196 3.916.557 1.6-.643 4.539-1.992 5.95-6.187 6.474-13.575 11.162-22.731 13.042-.328-.805-.311-1.306-.294-1.807"/>
  <path fill="currentcolor" d="M870.86 420.21c-1.533-.353-3.06-.98-4.6-1.01-6.643-.128-13.29-.124-19.935-.08-3.14.021-4.46-1.347-4.419-4.524.166-12.62-1.37-11.16 10.614-11.192 18.608-.05 37.216-.014 55.824.004 5.967.006 6.401.476 6.46 6.611.011 1.163-.032 2.328.019 3.489.17 3.936-1.466 5.733-5.623 5.616-7.303-.206-14.617-.043-22.477.055-.55.088-.903 0-.76-.404 1.798-.847 3.445-1.626 5.112-1.67 5.995-.157 11.997-.119 17.995-.052 3.967.045 4.15-2.575 3.947-5.418-.196-2.746 1.225-6.624-3.669-6.64a8571 8571 0 0 0-61.488 0c-5.614.023-3.487 4.52-3.868 7.443-.37 2.838.206 4.795 3.887 4.664a259 259 0 0 1 18.99.043c1.47.055 2.89 1.393 4.295 2.389-.126.39-.215.533-.304.676"/>
  <path fill="currentcolor" d="M1385.995 267.001c-.668-1.729-1.885-3.448-1.915-5.188-.18-10.49.059-20.99-.162-31.479-.089-4.22 1.515-5.486 5.573-5.427 12.823.183 25.655-.112 38.475.162 4.748.101 6.089-1.81 6.08-6.168-.02-8.903.117-8.903-8.99-8.903-11.826 0-23.654.094-35.478-.1-1.832-.03-3.643-1.38-5.232-2.522.424-.41.615-.42.806-.428 1.73.351 3.457.996 5.189 1.007 13.143.083 26.29.182 39.43-.036 4.636-.077 6.094 1.692 6.026 6.176-.214 13.945 1.03 12.106-11.886 12.147-12.596.04-25.192.01-38.251.01 0 13.282 0 26.04.174 39.501.17.886.165 1.067.161 1.248"/>
  <path fill="currentcolor" d="M355.032 267.975c.738.006 1.477.013 2.585.02 4.772 6.775 8.953 13.714 13.734 20.21 1.21 1.643 4.29 2.5 6.584 2.66 17.55 1.22 34.754-.624 51.322-6.832 4.775-1.789 9.402-3.976 14.484-5.961-7.665 6.548-17.291 9.521-27.125 11.763-13.815 3.15-27.792 4.953-41.932 2.345-1.833-.338-3.994-1.488-5.054-2.95-3.695-5.099-6.816-10.613-10.5-15.722-1.224-1.698-3.338-3.438-5.299-3.804-8.286-1.549-16.667-2.587-25.42-3.914.461-.424 1.36-1.09 2.191-1.014 7.161.663 14.31 1.46 22.097 2.46a49 49 0 0 0 2.333.739"/>
  <path fill="currentcolor" d="M852.797 264.538c-.64-.909-1.7-2.277-1.72-3.66-.143-9.995.026-19.995-.122-29.99-.068-4.514 1.717-6.086 6.266-5.994 12.325.251 24.659.103 36.989.077 6.406-.013 6.812-.41 6.766-6.81-.067-9.363 1.063-8.098-8.325-8.15-11.496-.064-22.994.037-34.49-.071-1.654-.016-3.302-.802-5.035-1.632 14.573-.37 29.232-.186 43.884-.4 4.697-.068 6.104 1.764 6.07 6.158-.107 14.217.572 12.117-11.959 12.173-12.614.056-25.228.012-38.262.012 0 12.884 0 25.352-.062 38.287"/>
  <path fill="currentcolor" d="M1616.16 283.366c3.908-.361 7.99-.46 12.063-.315 2.75.097 3.837-.897 3.832-3.731-.064-33.233-.081-66.465-.02-99.698.013-7.382.38-14.764.922-22.415.442 1.216.64 2.7.642 4.185.019 39.124-.047 78.25.103 117.373.018 4.762-1.411 6.935-6.292 6.294-3.688-.484-7.386-.888-11.25-1.693"/>
  <path fill="currentcolor" d="M1262.591 214.504c1.123-5.273 2.075-10.982 3.97-16.358 4.28-12.141 9.064-24.104 13.564-36.169 2.171-5.82 1.3-7.037-4.937-6.964-11.283.131-8.598-1.476-12.249 8.673-2.572 7.15-5.18 14.287-7.886 21.386-.34.89-1.376 1.512-2.4 1.995-.312-.265-.332-.41-.07-.663.35-.444.44-.634.528-.825.066-.678.131-1.357.542-2.548.347-.513.373-.943.373-.943 2.975-8.305 6.025-16.585 8.887-24.93 1.054-3.072 2.768-4.601 6.136-4.383 3.144.204 6.312-.003 9.466.087 4.722.135 5.917 1.984 4.194 6.873-3.405 9.661-6.935 19.278-10.446 28.901-3.115 8.536-6.275 17.056-9.672 25.868m-39.665 45.471c-3.93-9.991-8.036-19.918-11.753-29.987-7.16-19.395-14.1-38.87-21.13-58.312-2.016-5.579-4.02-11.162-6.042-17.125.809.875 1.884 2.034 2.413 3.405 4.698 12.182 9.362 24.378 13.915 36.615 7.118 19.133 14.142 38.3 21.205 57.454.571 1.548 1.14 3.096 1.61 5.437a63 63 0 0 0-.218 2.513"/>
  <path fill="currentcolor" d="M1429.942 480.023c-.468-4.289-1.307-8.575-1.339-12.866-.141-18.995-.056-37.991-.04-56.987.005-6.363.323-6.79 6.88-6.619 2.85.074 5.682.853 8.569 2.164.04 22.984.032 45.116.007 67.263-.018.016-.057.043-.336-.266-.418-2.117-.672-3.923-.675-5.73-.029-18.783-.212-37.57.102-56.347.093-5.571-2.74-5.5-6.8-5.752-4.706-.292-5.424 1.676-5.393 5.797.176 23.103.09 46.208-.174 69.32z"/>
  <path fill="currentcolor" d="M103.109 324.316c.39-.33.815-.322 1.558-.311 4.598 4.12 8.542 8.676 13.23 12.26 8.587 6.566 18.539 9.597 29.35 10.895 16.982 2.039 33.023-.186 48.323-7.834.5-.25 1.268.036 2.155.307-16.222 9.71-34.027 11.754-52.492 9.345-12.53-1.635-24.01-6.085-33.412-14.838-3.127-2.91-5.798-6.31-8.712-9.824"/>
  <path fill="currentcolor" d="M1318.198 507.679c.344-.46.634-.511 1.56-.283 1.83.716 3.018 1.523 4.212 1.53 15.103.086 30.208-.042 45.31.112 4.825.05 3.763-3.214 3.654-5.788-.11-2.582 1.63-6.361-3.65-6.284-10.289.15-20.582.12-30.87-.044-1.494-.024-2.97-1.201-4.453-1.845 0 0 .092-.086.112-.146 4.019-.069 8.018-.078 12.562.166.82.148 1.094.041 1.37-.065 2.704-.062 5.408-.123 8.812.17 2.527.185 4.355.013 6.184-.158 1.393-.065 2.786-.13 4.68.059.774.147 1.048.04 1.323-.067.446-.067.893-.133 1.76.054.69.14.96.028 1.231-.085 3.608.161 3.504 2.766 3.556 5.328.199 9.934.21 9.941-9.47 9.943-14.149.004-28.298.075-42.444-.104-1.84-.023-3.663-1.358-5.44-2.493"/>
  <path fill="currentcolor" d="M722.01 207.039c-1.434.986-2.86 2.814-4.304 2.83-18.237.193-36.476.182-54.714.025-1.552-.014-3.092-1.448-4.53-2.86.244-2.744.42-4.85.506-6.959.243-6.008.45-12.017.671-18.026v25.189c20.567 0 40.485 0 61.12-.113.895-.104 1.073-.095 1.251-.086"/>
  <path fill="currentcolor" d="M1179.627 430.076c-.763 5.293-2.032 10.745-2.85 16.265-2.374 16.031-.47 31.47 9.053 44.902 3.7 5.217 9.483 8.961 14.35 13.34 1.092.983 2.32 1.816 3.42 3.032-.065.314-.532.36-.532.36-13.982-5.98-22.108-17.118-26.335-31.147-4.735-15.714-4.345-31.38 2.894-46.752"/>
  <path fill="currentcolor" d="M1223.257 260.13c-.292-.729-.253-1.302-.15-2.304 3.202 3.673 3.31-1.071 3.674-2.003 3.83-9.813 7.4-19.727 11.06-29.607a9612 9612 0 0 1 14.285-38.34c-2.134 7.574-4.08 15.564-6.797 23.282-5.499 15.623-11.455 31.084-17.118 46.65-.888 2.438-1.837 3.96-4.954 2.322"/>
  <path fill="currentcolor" d="M1197.055 430.069c11.595-17.598 35.388-17.188 48.745-6.871 6.4 4.942 6.77 4.793 11.092.486 2.795-2.785 2.572-5.027-.202-7.546-1.586-1.44-2.93-3.148-4.46-5.071 2.954 2.101 5.999 4.521 8.995 7 .33.274.67 1.128.522 1.303-2.708 3.193-5.224 6.648-8.424 9.26-.92.75-4.353-.404-5.786-1.656-6.94-6.068-14.782-9.219-24.049-9.09-10.109.14-18.097 4.37-25.126 12.093-.854.113-1.08.102-1.307.092"/>
  <path fill="currentcolor" d="M672.541 433.475c7.393-9.405 14.726-18.857 22.258-28.149.867-1.07 2.807-1.63 4.306-1.756a58.3 58.3 0 0 1 9.48-.012c1.672.133 3.286 1.01 4.926 1.551-.598 1.59-.845 3.463-1.856 4.723-4.576 5.71-9.369 11.245-14.405 16.973-.322.129-.37.085-.328-.273 1.509-2.704 2.778-5.207 4.488-7.36 2.57-3.233 5.654-6.072 8.071-9.404.715-.986.4-4.185-.26-4.469-5.302-2.278-12.76.479-16.545 5.174-6.414 7.958-13.095 15.702-19.782 23.403z"/>
  <path fill="currentcolor" d="M986.458 463.017c.567-.714 1.59-1.924 2.634-1.94 9.297-.149 18.606-.32 27.893.016 4.48.162 5.162-1.703 5.117-5.548-.044-3.704-.404-5.84-5.031-5.644-8.62.363-17.267.167-25.9.046-1.667-.023-3.324-.763-5.074-1.57 11.063-.418 22.216-.339 33.364-.518 3.497-.057 4.673 1.385 4.845 4.665.55 10.515.53 10.605-9.92 10.59-9.154-.015-18.308-.026-27.928-.097"/>
  <path fill="currentcolor" d="M321.975 363.62c-4.197-2.19-8.474-4.81-12.902-7.144-11.197-5.904-22.389-11.823-33.723-17.453-7.519-3.735-15.28-6.98-23.146-10.96-.213-.515-.221-1.006-.221-1.006 21.441 8.45 42.643 17.405 62.008 30.113 2.765 1.815 5.23 4.087 7.984 6.45"/>
  <path fill="currentcolor" d="M1243.105 405.492c-6.444-.275-13.008-1.37-19.577-1.402-17.785-.089-30.93 8.265-40.217 23.171-.648 1.04-1.794 1.768-3.067 2.658 7.58-15.076 19.197-24.762 36.732-27.137 9.046-1.226 17.503-.2 26.13 2.71"/>
  <path fill="currentcolor" d="M1613.03 247.984c-3.498-4.37-7.21-8.589-10.452-13.143-7.968-11.194-15.756-22.517-23.517-33.856-1.174-1.716-1.817-3.796-2.555-6.062 12.175 16.611 24.198 33.576 36.317 51.18.132 1.054.17 1.468.208 1.881"/>
  <path fill="currentcolor" d="M691.552 478.098c7.971 9.102 15.977 18.174 23.853 27.357.712.83.994 2.483.706 3.545-.173.637-1.83 1.192-2.837 1.226-4.158.14-8.652 1.04-12.387-.22-3.363-1.135-5.896-4.727-8.857-7.604-.063-.37.017-.467.361-.411 1.847 1.32 3.356 2.577 4.853 3.85 1.201 1.022 2.324 2.85 3.592 2.952 4.518.363 9.082.142 15.188.142-3.585-4.168-6.16-7.086-8.65-10.074-5.493-6.59-10.942-13.216-16.25-20.054.249-.387.338-.548.428-.709"/>
  <path fill="currentcolor" d="M1622.01 153.948c-1.49.098-2.98.197-5.005.851-.766 2.349-1.2 4.142-1.2 5.935.008 13.386.14 26.772.124 40.158-.002 1.71-.625 3.418-.96 5.127-.17-8.449-.394-16.896-.49-25.345-.08-6.989-.065-13.98.013-20.968.068-5.996 1.137-7.066 6.938-6.989 3.47.047 6.937.32 10.3.851-.31.366-.515.373-.72.38-1.073-.01-2.145-.02-4.034-.027-2.2.01-3.582.018-4.965.027"/>
  <path fill="currentcolor" d="M1485.127 509.118c-9.227 4.98-18.913 4.452-28.662 1.95-8.078-2.072-14.538-6.645-19.245-13.705.412-.325.6-.321 1.082-.167 6.561 6.81 13.794 12.192 23.158 12.664 7.784.392 15.637-.594 23.46-.97 0 0 .137.153.207.228"/>
  <path fill="currentcolor" d="M739.989 281.541c-.397-.774-.985-2.01-.986-3.249-.048-39.75-.042-79.499-.024-119.248 0-.813.239-1.625.652-2.743.343 29.095.407 58.496.451 87.896a4433 4433 0 0 1-.093 37.344"/>
  <path fill="currentcolor" d="M690.926 501.074c-9.546-10.951-19.046-21.943-28.696-32.802-1.21-1.362-3.206-2.026-5.267-2.642-.605.368-.782.364-.948-.02 1.483-4.315 3.462-3.061 5.41-.845 7.646 8.699 15.358 17.344 22.832 26.188 2.59 3.065 4.56 6.652 6.776 10.028-.038.028-.107.093-.107.093"/>
  <path fill="currentcolor" d="M643.613 509.888c-.598-1.222-1.717-2.443-1.719-3.666-.05-33.542.015-67.085.486-100.677.5.126.575.302.648.944-.008 32.379-.033 64.292.022 96.205.004 2.102.62 4.203.836 6.52a7 7 0 0 0-.273.674"/>
  <path fill="currentcolor" d="M251.673 326.9c.31.157.318.648.317.894-4.453-1.006-9.028-1.953-13.293-3.668-1.602-.644-3.365-2.982-3.547-4.706-.972-9.196-1.466-18.442-2.097-28.11 4.209 7.3 3.864 15.792 3.475 24.088-.222 4.726 1.131 6.81 5.618 7.812 3.177.709 6.152 2.324 9.527 3.69"/>
  <path fill="currentcolor" d="M770.234 508.168c-.201-.014-.403-.028-.901-.106-.34-33.752-.383-67.44-.345-101.591.266-.487.451-.51.858-.066.206 9.617.16 18.766.18 27.915.055 24.616.137 49.232.208 73.848m844.654-301.825c.416-2.033 1.04-3.742 1.041-5.45.015-13.387-.116-26.773-.124-40.159 0-1.793.434-3.586.92-5.69.251 30.463.247 61.236.01 92.482-.233.473-.714.436-.714.436s-.028.022.009-.438c.007-11.766.02-23.074-.095-34.38-.018-1.722-.626-3.438-.962-5.157-.055-.44-.11-.88-.085-1.644m-744.12 214.314c.18-.59.27-.732.665-.854.395 1.836.56 3.651.56 5.467.026 27.9.03 55.8-.013 83.754l-.153.164c-.385-1.492-1.103-2.983-1.107-4.476-.066-27.87-.046-55.739.048-84.055m15.568-1.468c.104 29.256.045 58.592-.39 88.44-.558.561-.743.61-.93.16-.007-28.118-.024-55.737.023-83.357.003-1.751.509-3.502.78-5.253 0 0 .353.088.517.01m141.636 88.333c-.063.456-.52.52-.748.553-.128-11.085-.128-11.086-11.043-11.088-8.982-.001-17.964.05-26.944-.06-1.132-.015-2.254-.866-3.284-1.652 1.795-.345 3.493-.37 5.831-.059 1.84.172 3.04.009 4.241-.154 2.032-.058 4.063-.116 6.718.15 1.51.166 2.398.008 3.285-.15 5.489-.07 10.983-.017 16.465-.249 4.21-.177 6.16 1.353 5.603 5.765-.27 2.13-.056 4.323-.124 6.944"/>
  <path fill="currentcolor" d="M444.433 278.094c3.378-3.044 7.24-6.007 10.828-9.272 4.835-4.398 9.43-9.059 14.2-13.53.854-.8 2.059-1.225 3.31-1.6-7.521 10.21-16.747 18.45-28.338 24.402"/>
  <path fill="currentcolor" d="M1451.192 489.822c5.328 3.294 10.557 6.425 17.297 6.38 7.021-.048 12.898-2.084 18.076-7.252.305-.163.352.08.399.531-.855 1.749-1.467 3.524-2.702 4.27-10.08 6.09-20.324 5.704-30.43.056-1.267-.708-1.945-2.47-2.833-3.805z"/>
  <path fill="currentcolor" d="M1614.766 208.339c.543 1.367 1.151 3.083 1.169 4.805.115 11.306.102 22.614.11 34.389-.771.496-1.52.523-2.642.501-.41-.463-.448-.877-.468-1.602.534-1.745 1.477-3.173 1.496-4.613.144-11.042.108-22.085.335-33.48"/>
  <path fill="currentcolor" d="m679.134 448.125-6.188 8.212c5.997 6.993 12.113 14.124 18.418 21.509.098.413.009.574-.534.8-5.172-5.262-9.75-10.724-14.647-15.884-5.965-6.285-5.225-10.85 2.797-14.784z"/>
  <path fill="currentcolor" d="M659.725 181.585c-.307 6.473-.514 12.482-.757 18.49-.086 2.11-.262 4.215-.681 6.628-.29-16.715-.296-33.736-.31-51.223.31-.47.626-.464 1.18-.462.376 1.72.517 3.45.381 5.846-.15 1.81-.023 2.952.103 4.094.057 5.388.113 10.775.084 16.627m193.297 25.911c-.627-.464-1.91-1.382-1.922-2.316-.13-10.43-.077-20.865-.009-31.297.004-.544.596-1.085 1.283-1.757.44 11.549.51 23.228.648 35.37"/>
  <path fill="currentcolor" d="M1439.009 155.469c.35 4.06.71 8.587 1.19 13.603-1.434 1.007-2.986 1.963-4.545 1.975-16.263.122-32.527.093-49.268.106 1.212-.39 2.898-1.11 4.588-1.12 14.24-.091 28.484-.177 42.721.03 3.977.057 5.857-.88 5.392-5.192-.318-2.947-.066-5.955-.078-9.402"/>
  <path fill="currentcolor" d="M1444.036 472.962c.008-22.131.016-44.263.062-66.892.316 1.243.826 2.982.835 4.723.107 20.427.138 40.855-.118 61.74-.307.456-.779.43-.779.43"/>
  <path fill="currentcolor" d="M660.497 226.218c1.362-.402 3.191-1.163 5.024-1.172 17.856-.09 35.713-.053 54.03.213.454.442.446.618.437.794-19.674.052-39.348.104-59.491.165"/>
  <path fill="currentcolor" d="M337.465 405.08c1.211-8.236.646-16.427-2.405-24.802 5.176 7.498 6.865 15.77 2.405 24.801"/>
  <path fill="currentcolor" d="M722.004 226.97c-.112 18.136-.223 36.273-.615 54.719-.34-17.712-.4-35.734-.172-54.235.289-.479.787-.484.787-.484m664.46 40.035c-.465-.185-.46-.366-.446-.819 17.679-.184 35.349-.096 53.323.356.029.39-.246.418-.928.524-17.431.033-34.455-.012-51.949-.06M906.518 169.99c.467.01.462.43.47.64-17.351.297-34.71.383-52.54.153-.472-.317-.476-.793-.476-.793 17.36-.003 34.72-.007 52.546 0m-.971 96.004c.46.098.455.585.45.83-17.029.226-34.053.208-51.546-.05-.467-.24-.454-.715-.454-.715 17.03-.054 34.06-.11 51.55-.065m-183.536-59.428c-.179.464-.357.455-.803.43-.187-17.36-.108-34.703.321-52.367.394 16.94.439 34.203.482 51.937"/>
  <path fill="currentcolor" d="M657.121 449.773c.972-.357 2.284-.43 2.861-1.117 4.083-4.871 8.015-9.869 12.277-15.004.282-.177.518.09.595.571-4.064 5.754-8.134 11.086-12.444 16.218-.516.614-2.33.138-3.512-.052.032-.218.223-.616.223-.616"/>
  <path fill="currentcolor" d="M1107.15 276.31c-.027.588-.06.81-.123 1.365a526 526 0 0 1-7.986-20.424c1.34 2.254 2.828 4.844 3.968 7.578 1.52 3.646 2.77 7.404 4.14 11.48"/>
  <path fill="currentcolor" d="M657.226 449.33c-.105.443-.296.841-.623.826-.443-14.737-.56-29.459-.391-44.18.476.005.666.01.856.015.088 14.298.176 28.597.158 43.338"/>
  <path fill="currentcolor" d="M1235.635 509.083c.392.466.375.967.36 1.72-1.09.488-2.18.724-3.878.728-1.453.087-2.298.407-3.143.728-3.393.112-6.786.223-10.748-.15-1.709-.577-2.847-.667-3.986-.757-.571.023-1.143.046-1.97-.358-.262-.61-.268-.79-.275-.971 7.744-.302 15.487-.603 23.64-.94"/>
  <path fill="currentcolor" d="M656.005 465.991c.176.003.353.007.794.019.257 14.263.25 28.518-.203 42.959-.444.186-.606.02-.612-.447.003-14.489.012-28.51.02-42.53"/>
  <path fill="currentcolor" d="M987.48 418.904c2.277-.373 5.012-.867 7.746-.864a874 874 0 0 1 30.422.555c-12.355.31-25.033.363-38.168.31"/>
  <path fill="currentcolor" d="M1429.876 480.42c.244-.402.422-.407 1.133-.17 2.36 5.404 4.19 10.567 5.904 15.833l-.34.314c-2.254-5.194-4.508-10.388-6.697-15.978"/>
  <path fill="currentcolor" d="M1385.255 206.492c-.294.465-.485.473-.963.493a674 674 0 0 1 .025-34.51c.506-.487.709-.497.912-.507.043 11.356.086 22.712.026 34.524"/>
  <path fill="currentcolor" d="M1444.019 472.978c.017-.016.49.011.725.019 1.524 4.403 2.812 8.798 4.172 13.603.072.41-.015.489-.354.397-4.309-3.936-4.687-8.885-4.6-13.976 0 0 .039-.027.057-.043"/>
  <path fill="currentcolor" d="M1169.976 154.01c-.287-.08-.535-.225-.866-.617 4.488-.171 9.098-.163 13.884.193-.016.363-.207.38-1.15.404-4.456.011-8.162.016-11.868.02"/>
  <path fill="currentcolor" d="M1099.1 255.775c-1.437-2.918-2.73-6.048-3.973-9.59 1.404 2.85 2.76 6.114 3.972 9.59"/>
  <path fill="currentcolor" d="M330.08 372.563a104 104 0 0 1-7.998-8.33c2.636 2.425 5.283 5.206 7.998 8.33m362.294 59.885c-2.225 2.788-4.451 5.577-7.027 8.458-.35.092-.443.005-.41-.351a115 115 0 0 1 7.144-8.454c.099.114.293.347.293.347m-7.332 8.594c-1.736 2.305-3.519 4.566-5.605 6.955-.303.128-.406.03-.4-.364 1.96-2.504 3.913-4.613 5.867-6.722z"/>
  <path fill="currentcolor" d="m1211.995 510.012.027.826c-2.835-.6-5.678-1.472-8.738-2.603-.216-.26.25-.306.484-.33 2.293.355 4.352.734 6.923 1.338.719.476.977.652 1.287.752 0 0 .016.007.017.017M233.112 290.531c-1.567-1.445-3.179-3.253-4.9-5.393 1.545 1.455 3.2 3.242 4.9 5.393"/>
  <path fill="currentcolor" d="M335.069 379.571c-1.617-1.76-3.292-3.874-4.971-6.354 1.634 1.757 3.273 3.878 4.97 6.354"/>
  <path fill="currentcolor" d="M1017.993 265.998c.737-1.953 1.473-3.907 2.557-5.938-.19 2.12-.726 4.316-1.702 6.578-.642-.133-.78-.367-.855-.64"/>
  <path fill="currentcolor" d="M1017.72 266.244c.348.027.486.261.865.565a32 32 0 0 1-2.105 6.242c.111-2.084.539-4.322 1.24-6.807"/>
  <path fill="currentcolor" d="M696.952 426.955c-1.312 1.75-2.648 3.478-4.28 5.35-.298.143-.492-.09-.551-.544 1.546-1.927 3.152-3.399 4.759-4.87z"/>
  <path fill="currentcolor" d="M884.015 510.032c-3.896-.042-7.792-.083-11.938-.484-.25-.36-.148-.47.362-.52 4.283-.039 8.055-.028 11.762.238-.106.425-.146.595-.186.766"/>
  <path fill="currentcolor" d="M1166.976 155.151c.921 1.706 1.707 3.578 2.03 5.558-.879-.157-1.295-.422-1.711-.687-.116-.434-.233-.868-.314-2.026a26 26 0 0 0-.083-2.255s-.057-.424.078-.59"/>
  <path fill="currentcolor" d="M332.435 411.086c.8-1.261 1.918-2.613 3.397-3.956-.786 1.294-1.933 2.58-3.397 3.956"/>
  <path fill="currentcolor" d="M656.232 509.238c-3.887.368-7.854.654-12.22.795-.4-.145-.24-.605.334-.823 4.265-.22 7.954-.22 11.644-.22z"/>
  <path fill="currentcolor" d="M1169.55 166.13c.635-.037 1.606.14 1.74.575.59 1.926.941 3.926 1.175 6.27-1.123-1.925-2.043-4.219-2.914-6.845m12.446 29.487c-.497-.185-.997-.745-1.734-1.462-.603-.902-.966-1.646-1.296-3.062.02-1.132.009-1.595.013-2.074l.05-.05c.989 2.09 1.977 4.181 2.967 6.648"/>
  <path fill="currentcolor" d="M645.03 403.889c2.687-.083 5.375-.165 8.52.152.468.594.482.79.039.979-3.187-.004-5.919-.003-8.624-.283.038-.471.051-.66.064-.848"/>
  <path fill="currentcolor" d="M1175.012 177.974c.513 1.615 1.025 3.23 1.309 5.18-.556-.39-.882-1.114-1.228-2.489z"/>
  <path fill="currentcolor" d="m654.045 405.025-.06-.877c1.054.222 2.126.736 3.141 1.546-.248.292-.438.287-1.157.18-.993-.351-1.459-.6-1.924-.85"/>
  <path fill="currentcolor" d="M1257.986 223.992c.476-1.829.952-3.657 1.697-5.477.27.009.32.494.32.494-.208 1.444-.417 2.888-1.053 4.664-.426.333-.922.354-.932.345z"/>
  <path fill="currentcolor" d="M1362.583 494.933c-1.41.282-3.239.454-5.325.368 1.464-.331 3.185-.405 5.325-.368"/>
  <path fill="currentcolor" d="M1214.502 511.57c.877-.128 2.015-.038 3.337.35-.903.153-1.99.01-3.337-.35"/>
  <path fill="currentcolor" d="M1251.016 409.604c-.882-.058-1.877-.427-2.948-1.134.894.049 1.864.436 2.948 1.134"/>
  <path fill="currentcolor" d="M1449.03 486.969a21 21 0 0 1 2.062 2.549c.1.304-.029.424-.422.408-.852-.956-1.31-1.897-1.77-2.837z"/>
  <path fill="currentcolor" d="M1229.273 512.35c.546-.412 1.391-.732 2.424-.865-.584.443-1.354.7-2.424.865"/>
  <path fill="currentcolor" d="M202.01 342.99c.569 1.143 1.138 2.286 1.51 3.728-.623.293-1.046.286-1.47.28-.13-.312-.261-.623-.26-1.605.147-1.234.16-1.797.186-2.37z"/>
  <path fill="currentcolor" d="M1196.894 430.382c.388-.303.614-.292 1.179-.244-.152.972-.642 1.906-1.379 3.04-.152-.694-.056-1.588.2-2.796"/>
  <path fill="currentcolor" d="M995.632 494.937c-.807.288-2.008.45-3.431.368.864-.329 1.95-.412 3.431-.368"/>
  <path fill="currentcolor" d="M1174.86 177.758c.172.897.193 1.577.224 2.597-.417-.615-.845-1.57-1.31-2.848.286-.205.61-.085 1.085.25"/>
  <path fill="currentcolor" d="M200.144 340.06c.616.75 1.232 1.5 1.857 2.59.008.34-.014.362-.313.347l-.878-.048a33 33 0 0 1-.66-2.459c-.035-.373-.006-.43-.006-.43"/>
  <path fill="currentcolor" d="M644.816 403.754c.2.323.187.512-.075.978-.249.278-.697.264-1.043.257a13 13 0 0 1-1.032-.097c.646-.424 1.29-.849 2.15-1.138"/>
  <path fill="currentcolor" d="M200.718 343.177c.285-.217.478-.206.959-.17.274.59.26 1.152.19 2.136-.45-.299-.846-1.018-1.15-1.966m1.332 4.105c.425-.278.848-.271 1.588-.255.325.436.334.862.335 1.607-.176.33-.345.34-.765.365-.555-.468-.857-.95-1.158-1.717"/>
  <path fill="currentcolor" d="M721.958 226.658c.046.312-.452.317-.701.329-.482-.192-.713-.398-1.105-.77-.155-.34-.147-.516-.13-.956.636.185 1.263.634 1.936 1.397m-62.222-62.083c-.221-.76-.347-1.901-.283-3.28.252.81.315 1.853.283 3.28"/>
  <path fill="currentcolor" d="M1256.95 227.968c.171-1.166.342-2.333.774-3.738.262-.238.285-.222.326.183.087.665.133.925.18 1.186-.073.633-.146 1.266-.557 2.16-.34.26-.608.303-.636.28l-.086-.07m-10.896 178.693c-.824.065-1.723-.122-2.78-.626.797-.088 1.75.143 2.78.626"/>
  <path fill="currentcolor" d="M1167.29 160.3c.421-.013.837.252 1.48.617.157.385.016.627-.383.935-.49-.354-.795-.814-1.096-1.552"/>
  <path fill="currentcolor" d="M1005.656 494.937c-.515.283-1.403.44-2.485.363.574-.32 1.344-.404 2.485-.363"/>
  <path fill="currentcolor" d="M1176.302 184.176c.428.327.847.916 1.028 1.835-.505-.305-.77-.94-1.028-1.835"/>
  <path fill="currentcolor" d="M1177.39 187.232c.516.164 1.06.595 1.621 1.382.02.355-.014.389-.264.393s-.719-.008-.719-.008a18 18 0 0 1-.638-1.767m-4.904-13.242c.451.236.978.768 1.308 1.651-.196.353-.601.35-.601.35-.21-.57-.421-1.139-.707-2.002"/>
  <path fill="currentcolor" d="M474.736 250.247c.277-.021.296.201.36.756-.107.66-.257.99-.66 1.434-.154-.57-.056-1.259.3-2.19"/>
  <path fill="currentcolor" d="M1166.738 155.943c.2.308.24.819.263 1.713-.152-.248-.288-.88-.263-1.713m11.258 33.36c.032-.304.5-.291.734-.279.246.474.258.937.247 1.746-.353-.157-.684-.66-.981-1.467"/>
  <path fill="currentcolor" d="M336.45 407.07c-.14-.488.03-1.09.498-1.828.136.481-.026 1.098-.498 1.829"/>
  <path fill="currentcolor" d="M1631.173 154.194c.042-.253.247-.26.76-.29.645.083.894.294 1.044.859-.555.06-1.098-.132-1.804-.569"/>
  <path fill="currentcolor" d="M1260.154 218.863c-.15.146-.202-.34-.215-.582.234-.302.483-.337.925-.342-.062.264-.311.521-.71.924"/>
  <path fill="currentcolor" d="M1256.933 229.766c-.201-.343-.3-.92-.19-1.647.208-.15.266-.105.273.158.008.264-.001.746-.001.746.007.17.014.34-.082.743m-241.586 45.258q-.143-.695.608-1.774.144.693-.608 1.774"/>
  <path fill="currentcolor" d="M884.299 510.1c-.244-.239-.204-.41.073-.838.236-.257.581-.31.679-.213l.294.291c-.254.276-.509.551-1.046.76"/>
  <path fill="currentcolor" d="M1257.186 228.897c-.171.126-.162-.356-.142-.595.021-.24.29-.284.425-.295.208.297.126.555-.283.89"/>
  <path fill="currentcolor" d="M1256.156 231.83c-.195.167-.679.16-.92.16.056-.25.355-.5.948-.79.253.128.21.295-.028.63"/>
  <path fill="currentcolor" d="M885.019 508.288c.184-.049.369-.098.835-.196.2.304.119.656-.236 1.128-.273.12-.47-.074-.54-.335-.07-.262-.059-.597-.059-.597"/>
  <path fill="currentcolor" d="M1371.745 494.919c-.02.199-.291.311-.653.266.074-.224.238-.288.653-.266"/>
  <path fill="currentcolor" d="M1258.484 225.401c-.3-.063-.347-.323-.424-.979-.032-.395.464-.416.712-.418.154.398.06.8-.288 1.397m3.521-9.598c-.18.214-.601.218-.8-.038s-.18-.752-.18-.752c.206-.003.413-.006.932.005.284.2.257.384.048.785"/>
  <path fill="currentcolor" d="M1252.931 185.621c.091.149.002.34-.33.737-.112-.093.02-.394.33-.737m.994-3.451c.101-.082.075.348.028.446-.207-.033-.234-.188-.028-.447"/>
  <path fill="currentcolor" d="M853.772 265.96c.225.1.212.573.21.81-.255 0-.508-.236-.843-.724-.082-.252.407-.187.633-.087"/>
  <path fill="currentcolor" d="M331.461 412.462c-.31-.108-.349-.377-.427-1.05.156-.393.353-.383.84-.33.149.435.005.827-.413 1.38"/>
  <path fill="currentcolor" d="M1252.148 410.572c-.218.1-.536-.058-.972-.463.212-.097.543.053.972.463m-5.027-2.912q-.301.103-.943-.56.302-.104.943.56"/>
  <path fill="currentcolor" d="M642.682 404.897c.213.025.442.055.904.315.034.51-.229.704-.556.81a5.6 5.6 0 0 1-.279-.809c-.055-.281-.054-.311-.07-.316"/>
  <path fill="currentcolor" d="M1169.018 164.401c-.01.102-.076.013-.076 0s.085-.101.076 0"/>
  <path fill="currentcolor" d="M853.75 170.13c.222-.14.226.335.235.573.01.238-.442.427-.684.46-.086-.276.071-.584.45-1.032"/>
  <path fill="currentcolor" d="M200.029 340.016c.115.043.086.101.056.113s-.422.005-.415-.108c.007-.114.244-.05.359-.005"/>
  <path fill="currentcolor" d="M1385.429 171.818c-.403.16-.606.17-1.114.189.058-.25.42-.51 1.129-.79.292.135.238.293-.015.6"/>
  <path fill="currentcolor" d="M1347.752 494.938c-.023.2-.297.307-.663.256.076-.222.243-.286.663-.256"/>
  <path fill="currentcolor" d="M1173.146 176.249c.047-.258.452-.255.654-.25.186.208.169.413.07.916-.31.064-.54-.172-.724-.666"/>
  <path fill="currentcolor" d="M1368.751 494.943c-.022.2-.296.307-.662.257.076-.222.243-.286.662-.257"/>
  <path fill="currentcolor" d="m1438.01 497.046-.85-.023c-.284-.01-.565-.254-.576-.44s.215-.396.545-.376c.598.237.781.51.88.84"/>
  <path fill="currentcolor" d="M691.922 502.076c-.325-.136-.605-.317-.941-.75-.055-.252.014-.317.257-.227.496.29.685.538.81.836 0 0-.081.097-.126.141"/>
  <path fill="currentcolor" d="M398.182 152.986c-2.743-10.931-4.97-22.026-8.368-32.75-3.865-12.198-4.365-12.118-14.54-5.063-54.058 37.48-108.091 74.995-162.134 112.497-3.474 2.411-6.954 4.815-10.764 7.335-1.264-1.404 2.179-3.558-.842-5.111 59.995-41.864 119.794-83.361 179.593-124.858 0 0 .416.008.623.01.402.787.433 2.167.815 2.272 7.722 2.126 8.378 9.513 10.47 15.159 3.95 10.663 7.244 21.677 6.954 33.31-.287 11.512.456 23.192-1.263 34.494-2.72 17.882-8.763 34.91-18.26 50.504-.458.75-1.535 1.123-2.662 1.551 4.69-11.773 10.377-23.198 14.524-35.156 2.923-8.425 3.756-17.576 5.827-26.865.364-.566.496-.705.467-.768-.094-.202-.248-.374-.379-.558-.017-8.017-.034-16.034.14-24.62.06-.84-.07-1.111-.2-1.383"/>
  <path fill="currentcolor" d="M360.2 265.251c2.865-3.978 5.932-7.727 9.355-11.266.386.475.417.742.447 1.01-3.2 3.496-6.399 6.991-9.801 10.256"/>
  <path fill="currentcolor" d="M371.826 251.407c1.427-2.847 3.198-5.6 5.168-8.593 1.386 4.346-1.676 6.54-5.168 8.593m10.536-148.606c-.238-.267-.29-.703-.354-1.469.172.214.355.757.354 1.469m-12.111 151.97c-.28-.044-.31-.31-.403-.977-.078-.691.037-.917.476-1.12.188.596.182 1.235-.073 2.097m.601-2.224c-.296-.29-.199-.542.215-.837.14.212.094.518-.215.837"/>
  <path fill="currentcolor" d="M199.104 217.977c.077 2.245.109 4.165.191 6.495-.248-2.03-.548-4.472-.572-7.194.296-.063.316.155.38.7m4.188 23.095c1.678.02 3.327.433 5.342 1.169.365.323.371.754.37.756l-.004.003c-1.912-.512-3.824-1.024-5.708-1.928m-1.367-2.889c.583.407 1.04 1.122 1.463 2.18-.553-.395-1.07-1.133-1.463-2.18m9.358 4.709s.387-.086.55.024c.055.421-.132.675-.606.985-.766-.065-1.321-.243-2.052-.66-.175-.24-.174-.242.208-.244.888-.036 1.394-.07 1.9-.105m-11.402-16.741c.321.537.376 1.263.428 2.365-.234-.476-.465-1.326-.429-2.365m1.835 9.95c.181.068.224.232.205.644-.155-.017-.25-.282-.205-.644"/>
  <path fill="currentcolor" d="M1622.239 154.22c1.155-.28 2.538-.289 4.335-.285a19.2 19.2 0 0 1-4.335.285m-6.135 93.904c-.083-.162.398-.125.64-.13-.026.094-.292.193-.64.13"/>
  <path fill="currentcolor" d="M1071.6 232.938c-6.53-16.258-12.755-32.598-19.093-49.311 1.143 1.008 2.942 2.18 3.569 3.804 5.608 14.546 11.019 29.168 16.425 43.79.154.416-.382 1.085-.902 1.717"/>
  <path fill="currentcolor" d="M1046.009 235.25c1.068-.067 2.136-.133 3.594-.095 5.12.365 9.85.654 14.583.872 1.883.086 3.773.014 5.655.951-12.044 0-24.09.036-36.133-.078-.834-.008-1.658-1.136-2.531-2.194.366-.206.776.038 1.835.682 4.765.22 8.88.041 12.997-.138"/>
  <path fill="currentcolor" d="M1586.112 448.334c7.245-.4 14.57-.388 21.895-.404 10.78-.023 16.8-8.902 12.94-19.093-.52-1.372-1.194-2.685-1.934-4.394 3.773.006 3.746 3.212 4.214 5.9 1.96 11.25-2.451 18.503-12.632 19.418-7.585.682-15.28.158-22.926.088-.496-.005-.985-.727-1.557-1.515"/>
  <path fill="currentcolor" d="M1586.327 496.037c7.97-.685 16.2-.633 24.347-1.426 14.595-1.42 18.203-17.173 10.91-26.654 3.987.55 5.147 3.734 5.374 7.275.82 12.743-3.5 18.912-16.29 20.814-7.882 1.172-16.068.301-24.34-.01m33.513-30.172c-10.578-4.5-21.807-1.708-33.18-2.498.364-.81 1.198-2.262 1.996-2.243 8.742.205 17.492.473 26.206 1.153 1.737.136 3.333 2.088 4.978 3.588"/>
  <path fill="currentcolor" d="M1585.63 419.112c.312 9.249.233 18.603.304 28.402-.537-.323-1.813-1.083-1.824-1.861-.121-8.316-.062-16.635.03-24.953.006-.498.716-.989 1.49-1.588m33.318 4.625c-3.744-1.292-7.465-2.967-11.57-4.744-4.932-.401-9.478-.742-14.029-.98-2.073-.11-4.158-.02-6.237-.02l.046-1.459c8.496.519 17.034.699 25.458 1.776 2.295.294 4.245 3.288 6.332 5.427"/>
  <path fill="currentcolor" d="M1621.43 467.23c-.504.046-.975-.242-1.557-.785.455-.02 1.024.216 1.557.785"/>
  <path fill="currentcolor" d="M1170.277 154.29c3.405-.284 7.11-.289 11.28-.288-3.351.192-7.165.38-11.28.288m84.476 77.879q.103.57-.513 1.655-.103-.569.513-1.655m6.107-17.073c.164-.083.145.413.134.66-.17.077-.347-.083-.476-.275-.028-.042.113-.198.342-.385m-48.99 294.684c-.202.115-.46-.06-.786-.517.21-.137.477.032.787.517"/>
  <path fill="currentcolor" d="M354.845 267.74q-.57.105-1.694-.503.57-.106 1.694.503"/>
  <path fill="currentcolor" d="M1438.302 497.196c-.392-.48-.575-.752-1.06-1.092-2.043-5.287-3.872-10.45-5.967-15.862-.269-23.354-.182-46.459-.358-69.562-.031-4.121.687-6.089 5.392-5.797 4.06.252 6.894.18 6.8 5.752-.313 18.778-.13 37.564-.1 56.346.002 1.808.256 3.614.674 5.731.192 5.4.57 10.349 4.879 14.285.797 1.032 1.256 1.973 2.044 2.99 1.28 1.35 1.959 3.112 3.226 3.82 10.106 5.648 20.35 6.034 30.43-.056 1.235-.746 1.847-2.521 2.772-4.168 6.235-5.194 7.625-12.368 7.781-19.353.443-19.795.226-39.608.095-59.413-.026-3.854.26-6.164 5.207-6.03 4.59.125 6.047 1.525 6.003 6.11-.197 20.802-.15 41.607-.066 62.411.057 14.116-4.526 25.63-17.51 32.73-1.148.63-2.138 1.549-3.413 2.593-8.034.635-15.887 1.621-23.671 1.229-9.364-.472-16.597-5.854-23.158-12.664"/>
  <path fill="currentcolor" d="M1333.575 494.993c1.87.728 3.345 1.905 4.839 1.929 10.288.164 20.581.194 30.87.044 5.28-.077 3.54 3.702 3.65 6.284.11 2.574 1.17 5.837-3.654 5.788-15.102-.154-30.207-.026-45.31-.112-1.194-.007-2.383-.814-3.775-1.592-.198-31.936-.2-63.529-.191-95.121.002-5.537 4.723-8.588 9.495-5.83 1.057.612 1.44 3.094 1.445 4.716.086 25.939.013 51.878.155 77.817.011 2.001 1.361 3.995 2.476 6.077m-562.99 13.329c-.422-24.77-.504-49.386-.559-74.002-.02-9.149.026-18.298.1-27.923 1.179-.776 2.283-1.19 3.424-1.36 7.81-1.165 9.486.275 9.487 8.064V500.1c0 8.842-.468 9.314-9.193 8.93-.975-.043-1.94-.362-3.26-.707"/>
  <path fill="currentcolor" d="M885.016 507.79q.006.749-.035.998c-.028.164-.373.217-.544.22-3.943-.008-7.715-.019-11.946-.034-.469-27.904-.472-55.804-.497-83.704-.002-1.816-.166-3.631-.524-5.716-1.711-1.016-3.132-2.354-4.601-2.41a259 259 0 0 0-18.99-.042c-3.681.131-4.256-1.826-3.887-4.664.381-2.923-1.746-7.42 3.868-7.443 20.496-.082 40.992-.064 61.488 0 4.894.016 3.473 3.894 3.669 6.64.203 2.843.02 5.463-3.947 5.418-5.998-.067-12-.105-17.995.052-1.667.044-3.314.823-5.113 1.67-.414 2.155-.92 3.906-.923 5.657-.047 27.62-.03 55.239-.023 83.357"/>
  <path fill="currentcolor" d="M692.391 501.99c-.468-.353-.657-.602-1.115-.919-2.458-3.466-4.43-7.053-7.02-10.118-7.473-8.844-15.185-17.49-22.831-26.188-1.948-2.216-3.927-3.47-5.41.845-.019 14.402-.028 28.423-.03 42.912-3.685.468-7.374.469-11.524.473-.792-2.098-1.407-4.199-1.411-6.301-.055-31.913-.03-63.826-.022-96.205.33-.573.592-.767.904-1.27.112-.223.56-.21.784-.205 2.954.003 5.686.002 8.873.006.921.254 1.387.503 2.095.854.359 14.823.476 29.545.887 44.5 1.508.205 3.323.681 3.84.067 4.309-5.132 8.379-10.464 12.561-16.084 6.609-8.182 13.29-15.926 19.704-23.884 3.785-4.695 11.243-7.452 16.544-5.174.66.284.976 3.483.261 4.469-2.417 3.332-5.501 6.171-8.071 9.405-1.71 2.152-2.979 4.655-4.488 7.359-1.649 1.83-3.255 3.302-4.9 5.114-2.378 3.077-4.716 5.815-7.086 8.909-1.986 2.465-3.94 4.574-5.95 7.028-8.028 4.33-8.768 8.894-2.803 15.18 4.896 5.159 9.475 10.62 14.488 16.11 5.761 6.772 11.21 13.398 16.702 19.988 2.49 2.988 5.066 5.906 8.651 10.074-6.106 0-10.67.221-15.188-.142-1.268-.102-2.39-1.93-3.592-2.952-1.497-1.273-3.006-2.53-4.853-3.85"/>
  <path fill="currentcolor" d="M211.05 242.673c-.274.254-.78.289-1.666.323-.38 0-.386-.431-.387-.646.607-.11 1.215-.003 2.054.323"/>
  <path fill="currentcolor" d="M398.12 179.234c.254-.061.408.111.502.313.03.063-.103.202-.324.384-.208-.1-.254-.276-.177-.697m-.006-25.984c.197.008.327.28.312.654-.223-.062-.301-.226-.312-.654"/>
  <path fill="currentcolor" d="M1045.563 235.108c-3.67.321-7.786.5-12.23.438 3.71-.355 7.747-.467 12.23-.438"/>
</svg>
